<?xml version="1.0" encoding="UTF-8" standalone="no"?>
<svg
   xmlns:dc="http://purl.org/dc/elements/1.1/"
   xmlns:cc="http://creativecommons.org/ns#"
   xmlns:rdf="http://www.w3.org/1999/02/22-rdf-syntax-ns#"
   xmlns:svg="http://www.w3.org/2000/svg"
   xmlns="http://www.w3.org/2000/svg"
   xmlns:sodipodi="http://sodipodi.sourceforge.net/DTD/sodipodi-0.dtd"
   xmlns:inkscape="http://www.inkscape.org/namespaces/inkscape"
   version="1.1"
   x="0px"
   y="0px"
   viewBox="0 0 100 100"
   style="enable-background:new 0 0 100 100;"
   xml:space="preserve"
   id="svg4288"
   inkscape:version="0.91 r13725"
   sodipodi:docname="blank.svg"><metadata
     id="metadata4400"><rdf:RDF><cc:Work
         rdf:about=""><dc:format>image/svg+xml</dc:format><dc:type
           rdf:resource="http://purl.org/dc/dcmitype/StillImage" /><dc:title /></cc:Work></rdf:RDF></metadata><defs
     id="defs4398" /><sodipodi:namedview
     pagecolor="#ffffff"
     bordercolor="#666666"
     borderopacity="1"
     objecttolerance="10"
     gridtolerance="10"
     guidetolerance="10"
     inkscape:pageopacity="0"
     inkscape:pageshadow="2"
     inkscape:window-width="1806"
     inkscape:window-height="972"
     id="namedview4396"
     showgrid="false"
     inkscape:zoom="8.05"
     inkscape:cx="31.987578"
     inkscape:cy="50"
     inkscape:window-x="0"
     inkscape:window-y="0"
     inkscape:window-maximized="0"
     inkscape:current-layer="svg4288" /><style
     type="text/css"
     id="style4290">
	.st0{display:none;}
	.st1{display:inline;}
</style><g
     class="st0"
     id="g4292"><g
       class="st1"
       id="g4294"><path
         d="M85,9c3.3,0,6,2.7,6,6v70c0,3.3-2.7,6-6,6H15c-3.3,0-6-2.7-6-6V15c0-3.3,2.7-6,6-6H85 M85,5H15C9.5,5,5,9.5,5,15v70    c0,5.5,4.5,10,10,10h70c5.5,0,10-4.5,10-10V15C95,9.5,90.5,5,85,5L85,5z"
         id="path4296" /></g></g><g
     class="st0"
     id="g4298"><circle
       class="st1"
       cx="50"
       cy="50"
       r="9.1"
       id="circle4300" /></g><g
     class="st0"
     id="g4302"><circle
       class="st1"
       cx="26.3"
       cy="73.7"
       r="9.1"
       id="circle4304" /><circle
       class="st1"
       cx="73.7"
       cy="26.3"
       r="9.1"
       id="circle4306" /></g><g
     class="st0"
     id="g4308"><circle
       class="st1"
       cx="26.3"
       cy="73.7"
       r="9.1"
       id="circle4310" /><circle
       class="st1"
       cx="73.7"
       cy="26.3"
       r="9.1"
       id="circle4312" /><circle
       class="st1"
       cx="50"
       cy="50"
       r="9.1"
       id="circle4314" /></g><g
     class="st0"
     id="g4316"><circle
       class="st1"
       cx="26.3"
       cy="26.3"
       r="9.1"
       id="circle4318" /><circle
       class="st1"
       cx="26.3"
       cy="73.7"
       r="9.1"
       id="circle4320" /><circle
       class="st1"
       cx="73.7"
       cy="26.3"
       r="9.1"
       id="circle4322" /><circle
       class="st1"
       cx="73.7"
       cy="73.7"
       r="9.1"
       id="circle4324" /></g><g
     class="st0"
     id="g4326"><circle
       class="st1"
       cx="26.3"
       cy="26.3"
       r="9.1"
       id="circle4328" /><circle
       class="st1"
       cx="26.3"
       cy="73.7"
       r="9.1"
       id="circle4330" /><circle
       class="st1"
       cx="73.7"
       cy="26.3"
       r="9.1"
       id="circle4332" /><circle
       class="st1"
       cx="50"
       cy="50"
       r="9.1"
       id="circle4334" /><circle
       class="st1"
       cx="73.7"
       cy="73.7"
       r="9.1"
       id="circle4336" /></g><g
     class="st0"
     id="g4338"><circle
       class="st1"
       cx="26.3"
       cy="26.3"
       r="9.1"
       id="circle4340" /><circle
       class="st1"
       cx="26.3"
       cy="50"
       r="9.1"
       id="circle4342" /><circle
       class="st1"
       cx="26.3"
       cy="73.7"
       r="9.1"
       id="circle4344" /><circle
       class="st1"
       cx="73.7"
       cy="26.3"
       r="9.1"
       id="circle4346" /><circle
       class="st1"
       cx="73.7"
       cy="50"
       r="9.1"
       id="circle4348" /><circle
       class="st1"
       cx="73.7"
       cy="73.7"
       r="9.1"
       id="circle4350" /><circle
       class="st1"
       cx="26.3"
       cy="26.3"
       r="9.1"
       id="circle4352" /><circle
       class="st1"
       cx="26.3"
       cy="73.7"
       r="9.1"
       id="circle4354" /><circle
       class="st1"
       cx="73.7"
       cy="26.3"
       r="9.1"
       id="circle4356" /><circle
       class="st1"
       cx="73.7"
       cy="73.7"
       r="9.1"
       id="circle4358" /></g><g
     class="st0"
     id="g4360"><g
       class="st1"
       id="g4362"><path
         d="M85,5H15C9.5,5,5,9.5,5,15v70c0,5.5,4.5,10,10,10h70c5.5,0,10-4.5,10-10V15C95,9.5,90.5,5,85,5z M50,59.1    c-5,0-9.1-4.1-9.1-9.1c0-5.1,4.1-9.1,9.1-9.1s9.1,4.1,9.1,9.1C59.1,55,55,59.1,50,59.1z"
         id="path4364" /></g></g><path
     d="M 85,5 15,5 C 9.5,5 5,9.5 5,15 l 0,70 c 0,5.5 4.5,10 10,10 l 70,0 c 5.5,0 10,-4.5 10,-10 L 95,15 C 95,9.5 90.5,5 85,5 Z M 26.3,70.850311 c -5.1,0 -0.155901,8.570807 -0.155901,3.570807 0,-5 -5.465217,0.713665 -0.465217,0.713665 5,0 2.764596,-5.837889 2.764596,-0.837889 0,5 2.856522,-3.446583 -2.143478,-3.446583 z m 51.87205,-39.54969 c -6.145766,-18.050937 2.452795,0.993168 2.452795,-4.006832 0,-5 -8.570808,-3.013044 -3.570808,-3.013044 5.1,0 -2.577018,-3.104969 -2.577018,1.895031 0.1,5 5.33876,9.952697 3.695031,5.124845 z"
     id="path4370"
     inkscape:connector-curvature="0"
     sodipodi:nodetypes="ssssssssssssssssscs" /><g
     class="st0"
     id="g4372"><g
       class="st1"
       id="g4374"><path
         d="M85,5H15C9.5,5,5,9.5,5,15v70c0,5.5,4.5,10,10,10h70c5.5,0,10-4.5,10-10V15C95,9.5,90.5,5,85,5z M26.3,82.9    c-5.1,0-9.1-4.1-9.1-9.1c0-5,4.1-9.1,9.1-9.1c5,0,9.1,4.1,9.1,9.1C35.4,78.8,31.3,82.9,26.3,82.9z M50,59.1c-5,0-9.1-4.1-9.1-9.1    c0-5.1,4.1-9.1,9.1-9.1s9.1,4.1,9.1,9.1C59.1,55,55,59.1,50,59.1z M73.7,35.4c-5,0-9.1-4.1-9.1-9.1c0-5,4.1-9.1,9.1-9.1    c5.1,0,9.1,4.1,9.1,9.1C82.9,31.3,78.8,35.4,73.7,35.4z"
         id="path4376" /></g></g><g
     class="st0"
     id="g4378"><g
       class="st1"
       id="g4380"><path
         d="M85,5H15C9.5,5,5,9.5,5,15v70c0,5.5,4.5,10,10,10h70c5.5,0,10-4.5,10-10V15C95,9.5,90.5,5,85,5z M26.3,82.9    c-5.1,0-9.1-4.1-9.1-9.1c0-5,4.1-9.1,9.1-9.1c5,0,9.1,4.1,9.1,9.1C35.4,78.8,31.3,82.9,26.3,82.9z M26.3,35.4    c-5.1,0-9.1-4.1-9.1-9.1c0-5,4.1-9.1,9.1-9.1c5,0,9.1,4.1,9.1,9.1C35.4,31.3,31.3,35.4,26.3,35.4z M73.7,82.9    c-5,0-9.1-4.1-9.1-9.1c0-5,4.1-9.1,9.1-9.1c5.1,0,9.1,4.1,9.1,9.1C82.9,78.8,78.8,82.9,73.7,82.9z M73.7,35.4    c-5,0-9.1-4.1-9.1-9.1c0-5,4.1-9.1,9.1-9.1c5.1,0,9.1,4.1,9.1,9.1C82.9,31.3,78.8,35.4,73.7,35.4z"
         id="path4382" /></g></g><g
     class="st0"
     id="g4384"><g
       class="st1"
       id="g4386"><path
         d="M85,5H15C9.5,5,5,9.5,5,15v70c0,5.5,4.5,10,10,10h70c5.5,0,10-4.5,10-10V15C95,9.5,90.5,5,85,5z M26.3,82.9    c-5.1,0-9.1-4.1-9.1-9.1c0-5,4.1-9.1,9.1-9.1c5,0,9.1,4.1,9.1,9.1C35.4,78.8,31.3,82.9,26.3,82.9z M26.3,35.4    c-5.1,0-9.1-4.1-9.1-9.1c0-5,4.1-9.1,9.1-9.1c5,0,9.1,4.1,9.1,9.1C35.4,31.3,31.3,35.4,26.3,35.4z M50,59.1c-5,0-9.1-4.1-9.1-9.1    c0-5.1,4.1-9.1,9.1-9.1s9.1,4.1,9.1,9.1C59.1,55,55,59.1,50,59.1z M73.7,82.9c-5,0-9.1-4.1-9.1-9.1c0-5,4.1-9.1,9.1-9.1    c5.1,0,9.1,4.1,9.1,9.1C82.9,78.8,78.8,82.9,73.7,82.9z M73.7,35.4c-5,0-9.1-4.1-9.1-9.1c0-5,4.1-9.1,9.1-9.1    c5.1,0,9.1,4.1,9.1,9.1C82.9,31.3,78.8,35.4,73.7,35.4z"
         id="path4388" /></g></g><g
     class="st0"
     id="g4390"><g
       class="st1"
       id="g4392"><path
         d="M85,5H15C9.5,5,5,9.5,5,15v70c0,5.5,4.5,10,10,10h70c5.5,0,10-4.5,10-10V15C95,9.5,90.5,5,85,5z M26.3,82.9    c-5.1,0-9.1-4.1-9.1-9.1c0-5,4.1-9.1,9.1-9.1c5,0,9.1,4.1,9.1,9.1C35.4,78.8,31.3,82.9,26.3,82.9z M26.3,59.1    c-5.1,0-9.1-4.1-9.1-9.1c0-5.1,4.1-9.1,9.1-9.1c5,0,9.1,4.1,9.1,9.1C35.4,55,31.3,59.1,26.3,59.1z M26.3,35.4    c-5.1,0-9.1-4.1-9.1-9.1c0-5,4.1-9.1,9.1-9.1c5,0,9.1,4.1,9.1,9.1C35.4,31.3,31.3,35.4,26.3,35.4z M73.7,82.9    c-5,0-9.1-4.1-9.1-9.1c0-5,4.1-9.1,9.1-9.1c5.1,0,9.1,4.1,9.1,9.1C82.9,78.8,78.8,82.9,73.7,82.9z M73.7,59.1    c-5,0-9.1-4.1-9.1-9.1c0-5.1,4.1-9.1,9.1-9.1c5.1,0,9.1,4.1,9.1,9.1C82.9,55,78.8,59.1,73.7,59.1z M73.7,35.4    c-5,0-9.1-4.1-9.1-9.1c0-5,4.1-9.1,9.1-9.1c5.1,0,9.1,4.1,9.1,9.1C82.9,31.3,78.8,35.4,73.7,35.4z"
         id="path4394" /></g></g><text
     xml:space="preserve"
     style="font-style:normal;font-weight:normal;font-size:110.06717682px;line-height:125%;font-family:sans-serif;letter-spacing:0px;word-spacing:0px;fill:#000000;fill-opacity:1;stroke:none;stroke-width:1px;stroke-linecap:butt;stroke-linejoin:miter;stroke-opacity:1"
     x="10.508684"
     y="99.535439"
     id="text4542"
     sodipodi:linespacing="125%"
     transform="scale(1.1870522,0.84242293)"><tspan
       sodipodi:role="line"
       id="tspan4544"
       x="10.508684"
       y="99.535439"
       style="fill:#ff0000">?</tspan></text>
</svg>