<svg xmlns="http://www.w3.org/2000/svg" xmlns:xlink="http://www.w3.org/1999/xlink" version="1.1" x="0px" y="0px" viewBox="0 0 100 100" style="enable-background:new 0 0 100 100;" xml:space="preserve"><style type="text/css">
	.st0{display:none;}
	.st1{display:inline;}
</style><g class="st0"><g class="st1"><path d="M85,9c3.3,0,6,2.7,6,6v70c0,3.3-2.7,6-6,6H15c-3.3,0-6-2.7-6-6V15c0-3.3,2.7-6,6-6H85 M85,5H15C9.5,5,5,9.5,5,15v70    c0,5.5,4.5,10,10,10h70c5.5,0,10-4.5,10-10V15C95,9.5,90.5,5,85,5L85,5z"></path></g></g><g class="st0"><circle class="st1" cx="50" cy="50" r="9.1"></circle></g><g class="st0"><circle class="st1" cx="26.3" cy="73.7" r="9.1"></circle><circle class="st1" cx="73.7" cy="26.3" r="9.1"></circle></g><g class="st0"><circle class="st1" cx="26.3" cy="73.7" r="9.1"></circle><circle class="st1" cx="73.7" cy="26.3" r="9.1"></circle><circle class="st1" cx="50" cy="50" r="9.1"></circle></g><g class="st0"><circle class="st1" cx="26.3" cy="26.3" r="9.1"></circle><circle class="st1" cx="26.3" cy="73.7" r="9.1"></circle><circle class="st1" cx="73.7" cy="26.3" r="9.1"></circle><circle class="st1" cx="73.7" cy="73.7" r="9.1"></circle></g><g class="st0"><circle class="st1" cx="26.3" cy="26.3" r="9.1"></circle><circle class="st1" cx="26.3" cy="73.7" r="9.1"></circle><circle class="st1" cx="73.7" cy="26.3" r="9.1"></circle><circle class="st1" cx="50" cy="50" r="9.1"></circle><circle class="st1" cx="73.7" cy="73.7" r="9.1"></circle></g><g class="st0"><circle class="st1" cx="26.3" cy="26.3" r="9.1"></circle><circle class="st1" cx="26.3" cy="50" r="9.1"></circle><circle class="st1" cx="26.3" cy="73.7" r="9.1"></circle><circle class="st1" cx="73.7" cy="26.3" r="9.1"></circle><circle class="st1" cx="73.7" cy="50" r="9.1"></circle><circle class="st1" cx="73.7" cy="73.7" r="9.1"></circle><circle class="st1" cx="26.3" cy="26.3" r="9.1"></circle><circle class="st1" cx="26.3" cy="73.7" r="9.1"></circle><circle class="st1" cx="73.7" cy="26.3" r="9.1"></circle><circle class="st1" cx="73.7" cy="73.7" r="9.1"></circle></g><g class="st0"><g class="st1"><path d="M85,5H15C9.5,5,5,9.5,5,15v70c0,5.5,4.5,10,10,10h70c5.5,0,10-4.5,10-10V15C95,9.5,90.5,5,85,5z M50,59.1    c-5,0-9.1-4.1-9.1-9.1c0-5.1,4.1-9.1,9.1-9.1s9.1,4.1,9.1,9.1C59.1,55,55,59.1,50,59.1z"></path></g></g><g class="st0"><g class="st1"><path d="M85,5H15C9.5,5,5,9.5,5,15v70c0,5.5,4.5,10,10,10h70c5.5,0,10-4.5,10-10V15C95,9.5,90.5,5,85,5z M26.3,82.9    c-5.1,0-9.1-4.1-9.1-9.1c0-5,4.1-9.1,9.1-9.1c5,0,9.1,4.1,9.1,9.1C35.4,78.8,31.3,82.9,26.3,82.9z M73.7,35.4    c-5,0-9.1-4.1-9.1-9.1c0-5,4.1-9.1,9.1-9.1c5.1,0,9.1,4.1,9.1,9.1C82.9,31.3,78.8,35.4,73.7,35.4z"></path></g></g><g class="st0"><g class="st1"><path d="M85,5H15C9.5,5,5,9.5,5,15v70c0,5.5,4.5,10,10,10h70c5.5,0,10-4.5,10-10V15C95,9.5,90.5,5,85,5z M26.3,82.9    c-5.1,0-9.1-4.1-9.1-9.1c0-5,4.1-9.1,9.1-9.1c5,0,9.1,4.1,9.1,9.1C35.4,78.8,31.3,82.9,26.3,82.9z M50,59.1c-5,0-9.1-4.1-9.1-9.1    c0-5.1,4.1-9.1,9.1-9.1s9.1,4.1,9.1,9.1C59.1,55,55,59.1,50,59.1z M73.7,35.4c-5,0-9.1-4.1-9.1-9.1c0-5,4.1-9.1,9.1-9.1    c5.1,0,9.1,4.1,9.1,9.1C82.9,31.3,78.8,35.4,73.7,35.4z"></path></g></g><g class="st0"><g class="st1"><path d="M85,5H15C9.5,5,5,9.5,5,15v70c0,5.5,4.5,10,10,10h70c5.5,0,10-4.5,10-10V15C95,9.5,90.5,5,85,5z M26.3,82.9    c-5.1,0-9.1-4.1-9.1-9.1c0-5,4.1-9.1,9.1-9.1c5,0,9.1,4.1,9.1,9.1C35.4,78.8,31.3,82.9,26.3,82.9z M26.3,35.4    c-5.1,0-9.1-4.1-9.1-9.1c0-5,4.1-9.1,9.1-9.1c5,0,9.1,4.1,9.1,9.1C35.4,31.3,31.3,35.4,26.3,35.4z M73.7,82.9    c-5,0-9.1-4.1-9.1-9.1c0-5,4.1-9.1,9.1-9.1c5.1,0,9.1,4.1,9.1,9.1C82.9,78.8,78.8,82.9,73.7,82.9z M73.7,35.4    c-5,0-9.1-4.1-9.1-9.1c0-5,4.1-9.1,9.1-9.1c5.1,0,9.1,4.1,9.1,9.1C82.9,31.3,78.8,35.4,73.7,35.4z"></path></g></g><g><g><path d="M85,5H15C9.5,5,5,9.5,5,15v70c0,5.5,4.5,10,10,10h70c5.5,0,10-4.5,10-10V15C95,9.5,90.5,5,85,5z M26.3,82.9    c-5.1,0-9.1-4.1-9.1-9.1c0-5,4.1-9.1,9.1-9.1c5,0,9.1,4.1,9.1,9.1C35.4,78.8,31.3,82.9,26.3,82.9z M26.3,35.4    c-5.1,0-9.1-4.1-9.1-9.1c0-5,4.1-9.1,9.1-9.1c5,0,9.1,4.1,9.1,9.1C35.4,31.3,31.3,35.4,26.3,35.4z M50,59.1c-5,0-9.1-4.1-9.1-9.1    c0-5.1,4.1-9.1,9.1-9.1s9.1,4.1,9.1,9.1C59.1,55,55,59.1,50,59.1z M73.7,82.9c-5,0-9.1-4.1-9.1-9.1c0-5,4.1-9.1,9.1-9.1    c5.1,0,9.1,4.1,9.1,9.1C82.9,78.8,78.8,82.9,73.7,82.9z M73.7,35.4c-5,0-9.1-4.1-9.1-9.1c0-5,4.1-9.1,9.1-9.1    c5.1,0,9.1,4.1,9.1,9.1C82.9,31.3,78.8,35.4,73.7,35.4z"></path></g></g><g class="st0"><g class="st1"><path d="M85,5H15C9.5,5,5,9.5,5,15v70c0,5.5,4.5,10,10,10h70c5.5,0,10-4.5,10-10V15C95,9.5,90.5,5,85,5z M26.3,82.9    c-5.1,0-9.1-4.1-9.1-9.1c0-5,4.1-9.1,9.1-9.1c5,0,9.1,4.1,9.1,9.1C35.4,78.8,31.3,82.9,26.3,82.9z M26.3,59.1    c-5.1,0-9.1-4.1-9.1-9.1c0-5.1,4.1-9.1,9.1-9.1c5,0,9.1,4.1,9.1,9.1C35.4,55,31.3,59.1,26.3,59.1z M26.3,35.4    c-5.1,0-9.1-4.1-9.1-9.1c0-5,4.1-9.1,9.1-9.1c5,0,9.1,4.1,9.1,9.1C35.4,31.3,31.3,35.4,26.3,35.4z M73.7,82.9    c-5,0-9.1-4.1-9.1-9.1c0-5,4.1-9.1,9.1-9.1c5.1,0,9.1,4.1,9.1,9.1C82.9,78.8,78.8,82.9,73.7,82.9z M73.7,59.1    c-5,0-9.1-4.1-9.1-9.1c0-5.1,4.1-9.1,9.1-9.1c5.1,0,9.1,4.1,9.1,9.1C82.9,55,78.8,59.1,73.7,59.1z M73.7,35.4    c-5,0-9.1-4.1-9.1-9.1c0-5,4.1-9.1,9.1-9.1c5.1,0,9.1,4.1,9.1,9.1C82.9,31.3,78.8,35.4,73.7,35.4z"></path></g></g></svg>