<svg xmlns="http://www.w3.org/2000/svg" xmlns:xlink="http://www.w3.org/1999/xlink" version="1.1" x="0px" y="0px" viewBox="0 0 100 100" enable-background="new 0 0 100 100" xml:space="preserve"><path d="M63.152,82.498l9.575-16.583c-2.132,0.204-4.195,0.307-6.059,0.319c-0.937,0.002-1.723-0.636-1.939-1.501  c0.075,0.009,0.165,0.015,0.245,0.015c10.08-0.058,25.183-2.896,27.165-8.97c1.183-3.589-0.666-6.388-5.468-8.329  c-0.022-0.001-0.031-0.006-0.048-0.017c-0.771-0.306-1.645,0.067-1.95,0.837c-0.101,0.254-0.13,0.525-0.092,0.779l-0.002,0.021  c0.091,0.503,0.423,0.948,0.931,1.149c3.412,1.37,4.017,2.723,3.971,3.701c-0.012,0.362-0.111,0.675-0.193,0.916  c-0.773,2.356-6.461,4.658-13.585,5.923l9.099-15.758c1.615-2.798,0.656-6.377-2.143-7.992L45.163,15.36  c-2.8-1.616-6.378-0.657-7.993,2.141L17.775,51.093c-4.929-1.483-7.243-3.395-7.262-5.076c0.001-0.081,0.006-0.17,0.02-0.254  c0.239-1.975,3.649-4.602,10.898-6.236c0.249-0.053,0.467-0.169,0.643-0.333c0.406-0.343,0.614-0.904,0.487-1.463  c-0.181-0.808-0.983-1.317-1.797-1.129c-4.459,1.005-7.92,2.437-10.178,4.169c-0.006,0.008-0.006,0.008-0.019,0.013  c-1.021,0.785-1.791,1.622-2.307,2.514c-0.505,0.875-0.757,1.791-0.747,2.755c0.039,5.092,7.754,8.749,21.139,10.045  c0.09,0.006,0.17,0.006,0.256-0.003c-0.215,0.893-1.072,1.518-2.012,1.426c-4.618-0.446-8.476-1.165-11.578-2.128  c-1.316,2.733-0.326,6.058,2.344,7.599L55.159,84.64C57.958,86.255,61.536,85.297,63.152,82.498z M38.865,31.027  c-0.858-3.202,1.042-6.49,4.243-7.349c3.202-0.858,6.49,1.041,7.348,4.243c0.857,3.2-1.039,6.49-4.242,7.349  C43.015,36.127,39.724,34.227,38.865,31.027z M44.365,51.552c-0.858-3.201,1.042-6.49,4.242-7.349  c3.202-0.857,6.491,1.043,7.349,4.243c0.857,3.203-1.041,6.491-4.242,7.349C48.513,56.652,45.224,54.755,44.365,51.552z   M49.865,72.078c-0.858-3.201,1.043-6.491,4.243-7.348c3.202-0.858,6.49,1.041,7.348,4.243c0.858,3.201-1.04,6.49-4.242,7.348  C54.013,77.179,50.724,75.279,49.865,72.078z"></path></svg>