<svg xmlns="http://www.w3.org/2000/svg" xmlns:xlink="http://www.w3.org/1999/xlink" version="1.1" x="0px" y="0px" viewBox="0 0 100 100" enable-background="new 0 0 100 100" xml:space="preserve"><path d="M62.654,82.572l9.575-16.585c-2.132,0.205-4.195,0.308-6.058,0.319c-0.937,0.002-1.723-0.636-1.939-1.5  c0.075,0.009,0.164,0.015,0.245,0.015c2.69-0.016,5.74-0.231,8.802-0.652c8.406-1.154,16.909-3.866,18.362-8.318  c1.183-3.589-0.665-6.388-5.468-8.33c-0.022-0.001-0.031-0.006-0.048-0.016c-0.771-0.307-1.644,0.067-1.95,0.837  c-0.1,0.254-0.13,0.525-0.092,0.778l-0.001,0.022c0.091,0.503,0.423,0.948,0.931,1.148c3.412,1.37,4.017,2.724,3.971,3.702  c-0.013,0.362-0.112,0.675-0.193,0.916c-0.773,2.356-6.462,4.658-13.585,5.922l9.097-15.757c1.617-2.799,0.657-6.378-2.141-7.994  L44.665,15.433c-2.8-1.616-6.377-0.657-7.993,2.142L17.277,51.167c-4.929-1.484-7.242-3.395-7.262-5.076  c0.001-0.081,0.006-0.171,0.021-0.254c0.239-1.975,3.649-4.602,10.897-6.237c0.25-0.052,0.467-0.169,0.644-0.333  c0.405-0.343,0.614-0.904,0.486-1.463c-0.18-0.808-0.983-1.318-1.796-1.129c-4.46,1.004-7.92,2.437-10.179,4.169  c-0.005,0.008-0.005,0.008-0.019,0.012c-1.02,0.786-1.791,1.622-2.306,2.514c-0.505,0.875-0.757,1.792-0.748,2.755  c0.024,3.211,3.107,5.85,8.733,7.688c3.296,1.076,7.461,1.88,12.406,2.358c0.089,0.005,0.17,0.006,0.255-0.003  c-0.214,0.892-1.071,1.518-2.012,1.425c-4.618-0.446-8.476-1.165-11.577-2.128c-1.316,2.731-0.328,6.057,2.343,7.598l37.497,21.649  C57.46,86.328,61.039,85.369,62.654,82.572z M44.467,47.073c1.657-2.87,5.327-3.853,8.196-2.196c2.87,1.657,3.853,5.327,2.196,8.196  c-1.657,2.87-5.326,3.853-8.196,2.196C43.794,53.612,42.811,49.943,44.467,47.073z"></path></svg>