<svg xmlns="http://www.w3.org/2000/svg" xmlns:xlink="http://www.w3.org/1999/xlink" version="1.1" x="0px" y="0px" viewBox="0 0 100 100" enable-background="new 0 0 100 100" xml:space="preserve"><path d="M63.117,82.572l9.576-16.585c-2.132,0.205-4.195,0.308-6.059,0.319c-0.937,0.002-1.723-0.636-1.939-1.5  c0.075,0.009,0.165,0.015,0.245,0.015c10.08-0.058,25.183-2.897,27.165-8.97c1.183-3.589-0.666-6.388-5.468-8.33  c-0.022-0.001-0.031-0.006-0.048-0.016c-0.771-0.307-1.645,0.067-1.95,0.837c-0.101,0.254-0.13,0.525-0.092,0.778l-0.002,0.022  c0.091,0.503,0.423,0.948,0.931,1.148c3.412,1.37,4.017,2.724,3.971,3.702c-0.012,0.362-0.111,0.675-0.193,0.916  c-0.773,2.356-6.461,4.658-13.585,5.922l9.098-15.757c1.616-2.799,0.657-6.378-2.142-7.993L45.129,15.433  c-2.8-1.616-6.377-0.657-7.994,2.142L17.741,51.167c-4.929-1.484-7.243-3.395-7.262-5.076c0.001-0.081,0.006-0.171,0.02-0.254  c0.239-1.975,3.649-4.602,10.898-6.237c0.249-0.052,0.467-0.169,0.643-0.333c0.406-0.343,0.614-0.904,0.487-1.463  c-0.181-0.808-0.983-1.318-1.797-1.129c-4.459,1.004-7.92,2.437-10.178,4.169c-0.006,0.009-0.006,0.009-0.019,0.013  c-1.021,0.786-1.791,1.622-2.307,2.514c-0.505,0.875-0.757,1.792-0.747,2.755c0.033,4.42,5.857,7.756,16.146,9.408  c0.018-2.634,1.754-5.042,4.422-5.756c3.201-0.856,6.491,1.043,7.349,4.243c0.857,3.203-1.043,6.491-4.242,7.349  c-3.159,0.846-6.393-0.996-7.303-4.121c-3.307-0.439-6.166-1.036-8.566-1.782c-1.315,2.731-0.327,6.057,2.344,7.599l37.496,21.649  C57.924,86.328,61.502,85.369,63.117,82.572z M38.831,31.1c-0.856-3.2,1.042-6.491,4.243-7.348c3.202-0.858,6.49,1.042,7.348,4.243  c0.858,3.202-1.039,6.49-4.242,7.348C42.98,36.2,39.689,34.301,38.831,31.1z M64.857,46.125c-0.858-3.2,1.041-6.49,4.242-7.348  c3.201-0.857,6.491,1.042,7.349,4.243c0.857,3.202-1.042,6.491-4.243,7.348C69.004,51.226,65.715,49.328,64.857,46.125z   M49.831,72.151c-0.856-3.201,1.043-6.491,4.243-7.349c3.202-0.858,6.49,1.042,7.348,4.243c0.858,3.202-1.04,6.491-4.242,7.349  C53.979,77.25,50.689,75.353,49.831,72.151z"></path></svg>